<svg width="38" height="38" viewBox="0 0 38 38" fill="none" xmlns="http://www.w3.org/2000/svg">
<mask id="mask0_4_1888" style="mask-type:alpha" maskUnits="userSpaceOnUse" x="0" y="0" width="38" height="38">
<path fill-rule="evenodd" clip-rule="evenodd" d="M17.8047 0.0541837C15.0665 0.334385 12.5891 1.49067 10.5846 3.42414C7.19416 6.69445 6.01336 11.4937 7.50297 15.9489C7.87694 17.0673 8.63955 18.5114 9.29588 19.3439C9.42383 19.5063 9.52858 19.6753 9.52858 19.7195C9.52858 19.7637 9.28095 19.9467 8.9783 20.1262C8.20611 20.5842 7.14751 21.3757 6.2188 22.1892C2.43907 25.5004 0.028216 30.7083 0.00168386 35.6194C-0.00505059 36.8614 -0.00188614 36.8849 0.216213 37.2149C0.950836 38.3266 2.60159 38.2358 3.21053 37.0502C3.33191 36.8138 3.38498 36.4631 3.44323 35.5111C3.58725 33.1596 4.07822 31.2687 5.04538 29.3406C6.47666 26.4873 9.02009 23.9337 11.8523 22.5063L12.3453 22.2578L13.5131 22.8454C17.3384 24.7704 21.4998 24.6286 25.2302 22.4459L25.5814 22.2404L26.2165 22.5601C28.9385 23.93 31.3033 26.2807 32.7684 29.0727C33.8519 31.1373 34.3637 33.0207 34.5181 35.5111C34.577 36.4615 34.6306 36.8142 34.7518 37.0502C35.3552 38.2249 36.9578 38.332 37.7205 37.2482C37.948 36.9249 37.9696 36.8349 37.9949 36.1048C38.0499 34.5257 37.6526 32.1171 37.0257 30.2277C36.6449 29.0802 35.6187 26.962 34.9458 25.9343C34.2214 24.8282 33.2641 23.686 32.1963 22.6535C31.1415 21.6338 30.3999 21.0502 29.1712 20.2724L28.3666 19.763L28.855 19.0819C29.8343 17.7162 30.6047 15.8667 30.9271 14.1074C31.1106 13.1059 31.1062 11.0446 30.9183 10.0165C30.741 9.04664 30.248 7.55887 29.8267 6.72232C28.6364 4.35879 26.4785 2.25157 24.1274 1.15701C22.1795 0.250139 19.8536 -0.155542 17.8047 0.0541837ZM20.3702 3.57862C22.2124 3.8947 23.7722 4.69618 25.0768 5.99723C26.1914 7.10872 26.9411 8.43066 27.4009 10.095C27.5409 10.6017 27.5695 10.9385 27.5698 12.0822C27.57 13.3092 27.5472 13.5442 27.3602 14.2385C26.9431 15.7869 26.1432 17.1522 25.013 18.245C23.299 19.9023 21.3237 20.7094 18.9812 20.7094C16.5793 20.7094 14.4779 19.8207 12.8018 18.0964C11.6997 16.9623 11.0133 15.7607 10.6024 14.2456C10.4108 13.5392 10.3894 13.3193 10.3912 12.0822C10.3929 10.8587 10.4167 10.6176 10.6039 9.9207C11.7617 5.61156 16.037 2.83522 20.3702 3.57862Z" fill="white"/>
</mask>
<g mask="url(#mask0_4_1888)">
<rect x="-4.2222" y="-2.53345" width="49.8222" height="46.4445" fill="#09c95f"/>
</g>
</svg>
