<svg width="41" height="40" viewBox="0 0 41 40" fill="none" xmlns="http://www.w3.org/2000/svg">
<path d="M6.9835 0.907005C4.95847 1.63023 2.59593 3.99277 1.34234 6.59638C0.329829 8.62141 0.233398 9.39285 0.233398 19.8555C0.233398 32.4396 0.619119 34.2718 3.70488 37.0201C6.83886 39.7683 7.51387 39.8647 20.4837 39.8647C30.4642 39.8647 32.5857 39.7201 33.8875 39.0933C36.0572 37.9844 37.9858 36.104 39.1911 33.8379C40.2037 32.0057 40.2519 31.2825 40.2519 20.3377C40.2519 7.65711 40.1072 6.69281 37.4072 3.75169C34.4661 0.521286 33.4536 0.328426 20.2426 0.37664C13.3479 0.37664 7.80316 0.617718 6.9835 0.907005ZM33.2125 4.47492C33.9357 4.90885 35.0446 6.0178 35.6714 6.93388C36.7804 8.57319 36.8286 9.05535 37.0215 17.7341C37.3108 29.9807 37.0697 31.7646 34.7071 34.2718L32.8268 36.2486H20.2426H7.65851L5.72991 34.2236L3.84953 32.1986V20.4823C3.84953 9.63393 3.94596 8.66962 4.81383 7.17496C5.34419 6.30709 6.45314 5.19814 7.32101 4.66778C8.81567 3.79991 9.77997 3.70348 20.3873 3.70348C30.0785 3.70348 32.1035 3.84812 33.2125 4.47492Z" fill="white"/>
<path d="M29.4998 7.65733C28.0534 9.10378 29.3552 11.6592 31.3802 11.3217C32.9231 11.0806 33.5499 9.82701 32.8749 8.33234C32.2481 6.98232 30.5124 6.64481 29.4998 7.65733Z" fill="white"/>
<path d="M18.0729 9.44119C13.0585 10.6948 9.63525 14.8413 9.63525 19.7592C9.63525 26.2682 13.9264 30.7522 20.2426 30.7522C28.4391 30.8004 33.5499 22.4592 29.8374 15.1788C27.7159 10.9841 22.364 8.38046 18.0729 9.44119ZM24.4855 14.1663C28.632 17.1556 28.3427 23.6646 24.0033 26.4129C21.9783 27.6665 17.9282 27.4736 15.9996 26.0272C11.7567 22.9414 12.3835 15.6609 17.0604 13.5395C19.0372 12.6234 22.8462 12.9609 24.4855 14.1663Z" fill="white"/>
</svg>
