<svg width="40" height="40" viewBox="0 0 40 40" fill="none" xmlns="http://www.w3.org/2000/svg">
<g clip-path="url(#clip0_412_21)">
<path d="M0.437355 0.09375C0.468605 0.140625 3.89829 5.14062 8.06236 11.1953C12.2186 17.25 15.6249 22.2188 15.6249 22.2344C15.6249 22.25 1.57017 38.6172 0.48423 39.8594C0.374855 39.9922 0.460793 40 2.15611 40H3.95298L10.5936 32.2734L17.242 24.5547L22.5467 32.2734L27.8514 40H33.7342C38.4217 40 39.6092 39.9766 39.5545 39.8984C39.5233 39.8516 35.992 34.6953 31.703 28.4531C27.4061 22.2109 23.8827 17.0625 23.8592 17.0078C23.828 16.9141 25.7264 14.6875 35.7577 3.02344L38.367 0H36.5702H34.7733L28.4999 7.29688C25.0467 11.3047 22.203 14.5781 22.1795 14.5625C22.1561 14.5547 19.8905 11.2656 17.1405 7.27344L12.1483 0H6.26548C1.72642 0 0.398293 0.0234375 0.437355 0.09375ZM22.3045 19.6641C28.8358 29.0156 34.3124 36.8516 34.4764 37.0859L34.7733 37.5H32.1717L29.5702 37.4922L17.6952 20.5C11.1639 11.1484 5.68736 3.3125 5.52329 3.07812L5.21861 2.65625H7.82798L10.4295 2.66406L22.3045 19.6641Z" fill="white"/>
</g>
<defs>
<clipPath id="clip0_412_21">
<rect width="40" height="40" fill="white"/>
</clipPath>
</defs>
</svg>
