<svg width="65" height="65" viewBox="0 0 65 65" fill="none" xmlns="http://www.w3.org/2000/svg">
<path d="M43.4634 21.5487C47.7068 21.5487 51.7765 23.2344 54.7771 26.235C57.7777 29.2356 59.4634 33.3053 59.4634 37.5487V56.2154H48.7967V37.5487C48.7967 36.1342 48.2348 34.7777 47.2346 33.7775C46.2344 32.7773 44.8779 32.2154 43.4634 32.2154C42.0489 32.2154 40.6923 32.7773 39.6921 33.7775C38.692 34.7777 38.13 36.1342 38.13 37.5487V56.2154H27.4634V37.5487C27.4634 33.3053 29.1491 29.2356 32.1497 26.235C35.1503 23.2344 39.2199 21.5487 43.4634 21.5487Z" fill="white"/>
<path d="M16.7967 24.2154H6.13V56.2154H16.7967V24.2154Z" fill="white"/>
<path d="M11.4633 16.2154C14.4089 16.2154 16.7967 13.8276 16.7967 10.8821C16.7967 7.93655 14.4089 5.54874 11.4633 5.54874C8.51782 5.54874 6.13 7.93655 6.13 10.8821C6.13 13.8276 8.51782 16.2154 11.4633 16.2154Z" fill="white"/>
</svg>
