<svg width="39" height="27" viewBox="0 0 39 27" fill="none" xmlns="http://www.w3.org/2000/svg">
<path d="M6.12485 0.467566C3.00412 0.99514 2.09191 1.61864 1.13168 3.68097C0.411516 5.21573 0.267483 6.75049 0.315494 13.4171C0.315494 21.6664 0.699584 23.489 2.42799 24.9758C4.06037 26.4146 6.22087 26.6064 20.0961 26.6064C34.4995 26.6064 35.1236 26.5105 37.0921 23.8247C38.0043 22.5777 38.1003 21.8103 38.1003 13.7528C38.1003 -0.15593 38.6764 0.323683 20.8163 0.179798C13.9507 0.0838757 7.32513 0.22776 6.12485 0.467566ZM20.4322 10.3955C25.8094 13.513 25.8094 13.4651 25.0893 13.7528C24.8012 13.8488 22.5447 15.0957 20.0961 16.5346C17.6475 17.9734 15.583 19.1725 15.487 19.1725C15.391 19.1725 15.295 16.5825 15.295 13.4171C15.295 10.2517 15.391 7.66175 15.487 7.66175C15.6311 7.66175 17.8396 8.90874 20.4322 10.3955Z" fill="white"/>
</svg>
